<?xml version="1.0" standalone="no"?>
<!DOCTYPE svg PUBLIC "-//W3C//DTD SVG 20010904//EN"
 "http://www.w3.org/TR/2001/REC-SVG-20010904/DTD/svg10.dtd">
<svg version="1.0" xmlns="http://www.w3.org/2000/svg"
 width="600.000000pt" height="579.000000pt" viewBox="0 0 600.000000 579.000000"
 preserveAspectRatio="xMidYMid meet">

<g transform="translate(0.000000,579.000000) scale(0.100000,-0.100000)"
fill="#000000" stroke="none">
<path d="M3370 5783 c-52 -19 -95 -101 -115 -220 -4 -24 -10 -43 -13 -43 -4 0
-38 59 -75 130 l-68 130 -37 0 c-69 0 -152 -67 -152 -123 0 -18 2 -18 23 -5
12 9 23 25 25 36 6 40 102 98 102 62 0 -27 -53 -255 -63 -271 -6 -10 -25 -23
-42 -29 -25 -9 -34 -7 -58 11 -27 20 -30 20 -46 4 -15 -15 -15 -17 3 -31 28
-20 85 -17 124 6 42 26 67 68 87 149 10 36 19 73 22 81 2 8 36 -45 76 -118 49
-91 76 -132 87 -130 11 2 22 40 42 140 37 189 46 203 121 198 19 -1 27 3 27
14 0 16 -37 21 -70 9z"/>
<path d="M3046 5252 c-37 -137 -63 -191 -87 -176 -12 7 -239 -26 -357 -52
-330 -74 -662 -240 -914 -458 -48 -42 -93 -76 -100 -76 -6 0 -31 11 -55 26
-58 34 -70 23 -38 -33 14 -25 25 -52 25 -59 0 -8 -34 -54 -75 -102 -154 -177
-296 -419 -380 -646 -64 -174 -105 -360 -130 -589 -8 -67 -14 -72 -140 -107
-181 -49 -185 -56 -53 -90 51 -12 114 -32 140 -42 l47 -20 6 -66 c25 -279 96
-535 215 -777 82 -167 177 -313 294 -452 l86 -102 -30 -51 c-17 -28 -30 -53
-30 -55 0 -12 31 -3 74 21 l46 26 97 -83 c347 -291 780 -473 1206 -505 85 -7
89 -8 104 -37 8 -17 30 -80 47 -141 17 -60 36 -111 42 -113 6 -2 24 44 42 106
17 61 38 126 46 146 14 34 17 35 66 35 64 0 229 25 345 52 319 74 661 249 909
464 l89 77 53 -29 c29 -16 56 -26 59 -22 3 3 -6 30 -21 61 l-27 54 78 89 c279
319 466 757 508 1185 13 135 -4 119 181 173 60 17 111 36 113 42 2 6 -43 24
-106 42 -61 17 -126 38 -145 46 -34 14 -34 15 -41 93 -24 283 -95 535 -220
786 -83 166 -168 290 -336 490 l-32 39 29 53 c16 30 25 57 22 61 -4 3 -31 -7
-60 -24 l-53 -30 -100 85 c-313 266 -717 445 -1105 492 -47 6 -110 13 -141 16
l-57 6 -21 67 c-11 37 -30 100 -41 140 -11 39 -26 72 -33 72 -7 0 -24 -46 -41
-108z m15 -85 c-13 -13 -14 5 -3 43 l7 25 3 -29 c2 -16 -1 -33 -7 -39z m58
-32 c46 -23 55 -76 21 -113 -42 -45 -123 -15 -123 46 0 40 28 72 71 81 2 1 16
-6 31 -14z m-70 -205 c-4 -19 -10 -47 -13 -62 -6 -25 -11 -27 -73 -33 -424
-40 -781 -179 -1070 -416 -39 -32 -74 -59 -78 -59 -12 0 -195 105 -195 111 0
4 42 42 93 84 327 274 731 447 1146 489 l116 12 41 -45 c37 -41 40 -48 33 -81z
m361 103 c356 -57 682 -195 970 -411 83 -62 170 -140 170 -153 0 -8 -174 -109
-189 -109 -5 0 -33 21 -63 46 -29 25 -100 77 -158 115 -261 174 -568 281 -884
309 -60 5 -110 11 -111 12 -1 2 -8 32 -14 67 -12 63 -12 64 12 85 14 12 30 32
37 44 11 22 15 23 73 17 34 -4 105 -13 157 -22z m-338 -904 l-2 -777 -31 -6
c-17 -3 -41 -6 -53 -6 -23 0 -190 89 -182 97 2 3 39 -15 82 -38 96 -53 90 -38
-11 27 -46 30 -75 56 -75 67 0 15 12 11 80 -23 44 -22 80 -38 80 -35 0 2 -34
27 -75 55 -41 28 -75 57 -75 65 0 20 1 20 81 -21 39 -19 72 -34 74 -32 2 2
-30 25 -71 53 -41 27 -74 55 -74 62 0 20 14 16 90 -22 39 -19 70 -33 70 -31 0
2 -29 23 -64 46 -73 47 -91 64 -81 80 4 7 30 -2 73 -25 36 -19 67 -33 69 -31
2 1 -28 24 -67 50 -38 25 -70 50 -70 55 0 22 23 20 80 -9 33 -17 60 -28 60
-26 0 2 -27 21 -60 42 -35 23 -60 46 -60 57 0 22 0 22 70 -13 83 -42 86 -37 7
15 -37 25 -67 52 -67 60 0 21 13 19 70 -10 72 -37 73 -30 3 16 -59 39 -72 56
-57 72 4 3 24 -3 46 -14 55 -28 57 -19 3 19 -25 17 -45 36 -45 41 0 19 20 21
51 6 44 -23 47 -12 5 15 -21 12 -36 30 -36 41 0 24 11 24 60 -1 53 -27 51 -19
-5 17 -32 20 -45 35 -45 51 0 22 14 30 24 13 6 -9 66 -33 66 -27 0 2 -18 15
-40 30 -24 16 -40 34 -40 46 0 24 3 24 41 4 44 -22 47 -11 5 16 -21 12 -36 30
-36 41 0 23 11 24 53 3 32 -15 32 -15 -6 18 -27 23 -36 38 -32 50 6 16 10 16
38 2 l32 -15 -27 21 c-17 13 -28 31 -28 46 0 27 3 28 33 14 22 -10 22 -10 0 6
-26 19 -33 70 -8 60 43 -17 47 -16 20 7 l-29 25 37 198 c37 192 47 239 50 232
1 -2 1 -352 -1 -779z m-168 640 c3 -17 6 -44 6 -59 0 -26 -3 -29 -52 -35 -29
-3 -99 -17 -156 -31 -57 -13 -109 -24 -116 -24 -14 0 -48 101 -38 112 16 16
245 65 313 67 33 1 37 -2 43 -30z m512 17 c103 -18 194 -42 206 -54 11 -11 -9
-87 -27 -102 -7 -6 -39 -3 -91 9 -43 11 -113 24 -154 31 -41 6 -78 14 -81 18
-3 4 -4 31 -1 60 4 51 5 52 35 52 18 0 68 -6 113 -14z m-432 -68 c4 -17 2 -28
-4 -28 -5 0 -10 14 -10 32 0 36 4 35 14 -4z m222 -26 c-12 -12 -18 8 -10 35
l8 28 4 -28 c2 -16 1 -31 -2 -35z m-256 11 c0 -20 -3 -24 -11 -16 -7 7 -9 19
-6 27 10 24 17 19 17 -11z m287 -10 c-3 -10 -5 -4 -5 12 0 17 2 24 5 18 2 -7
2 -21 0 -30z m-684 -83 c-7 -8 -23 24 -22 45 0 15 3 13 13 -10 7 -16 11 -32 9
-35z m1091 26 c-3 -14 -10 -26 -15 -26 -12 0 -11 4 3 35 14 31 21 26 12 -9z
m-1124 -35 c0 -24 -17 1 -24 34 l-6 30 15 -25 c8 -14 14 -32 15 -39z m393
-373 c-45 -238 -86 -450 -89 -471 -6 -35 -11 -40 -81 -72 -42 -19 -97 -51
-124 -70 -27 -19 -56 -35 -64 -35 -8 0 -62 27 -119 60 -57 33 -107 60 -110 60
-16 0 -1 -37 55 -134 l60 -106 -49 -76 c-28 -41 -60 -100 -72 -129 -12 -30
-29 -57 -39 -59 -19 -6 -340 -67 -656 -126 -121 -22 -233 -43 -249 -46 l-29
-6 7 78 c42 465 307 935 689 1223 151 115 366 222 552 276 108 31 281 63 351
64 l51 1 -84 -432z m522 402 c140 -29 279 -76 410 -140 485 -235 827 -669 945
-1200 23 -103 38 -270 24 -270 -4 0 -121 22 -259 50 -137 27 -338 65 -445 85
-107 20 -205 38 -216 41 -15 4 -28 23 -43 60 -11 30 -41 86 -66 125 -25 38
-45 74 -45 79 0 6 27 58 60 117 35 61 57 110 52 115 -5 5 -53 -17 -114 -52
-58 -33 -112 -60 -120 -60 -8 0 -30 12 -49 26 -40 31 -187 104 -208 104 -8 0
-39 -14 -69 -31 -74 -42 -76 -30 -2 17 35 23 60 46 60 57 0 22 1 23 -80 -18
-39 -19 -70 -34 -70 -32 0 2 32 25 70 51 63 42 80 62 65 78 -3 3 -30 -8 -60
-24 -71 -38 -70 -28 0 18 52 35 64 52 48 67 -3 4 -35 -9 -71 -28 -35 -20 -66
-35 -68 -33 -1 2 29 23 67 48 38 25 69 50 69 57 0 24 -20 23 -70 -2 -27 -14
-50 -24 -50 -22 0 2 25 21 55 40 37 25 53 42 49 52 -8 19 -17 19 -57 0 l-32
-16 30 25 c17 14 33 26 38 26 4 0 7 11 7 25 0 29 -1 30 -43 9 l-32 -15 33 28
c18 15 32 36 32 46 0 21 -2 21 -53 -3 -41 -20 -41 -20 -17 -1 50 40 60 51 60
67 0 16 -7 16 -55 -1 l-20 -7 20 17 c11 9 26 20 34 24 8 5 11 16 6 29 -6 21
-8 21 -38 6 l-32 -15 28 23 c15 13 27 34 27 46 0 25 -3 26 -33 11 -22 -10 -22
-10 1 10 23 20 31 67 10 58 -46 -18 -52 -18 -25 3 27 21 36 53 18 65 -5 3 -12
1 -16 -5 -3 -5 -12 -10 -18 -10 -7 0 -1 9 12 19 l23 18 -16 77 c-9 43 -16 83
-16 89 0 14 140 1 255 -23z m236 -23 c-13 -13 -15 1 -4 30 7 17 8 17 11 -1 2
-10 -1 -23 -7 -29z m-1189 -21 c-6 -10 -20 20 -21 44 0 8 6 4 13 -10 8 -14 12
-29 8 -34z m1233 25 c-3 -12 -10 -21 -15 -21 -5 0 -4 11 2 25 13 29 23 26 13
-4z m-1265 -30 c0 -21 -16 -2 -24 29 -7 24 -6 24 8 6 9 -11 16 -27 16 -35z
m1298 17 c-6 -18 -13 -27 -15 -21 -4 11 13 53 22 53 2 0 -1 -15 -7 -32z
m-1334 -38 c-7 -6 -24 22 -23 40 0 9 6 5 14 -10 7 -14 11 -27 9 -30z m1369 22
c-3 -12 -9 -22 -14 -22 -12 0 -11 7 2 32 13 25 20 19 12 -10z m36 -10 c-6 -18
-15 -30 -19 -27 -5 3 -1 19 8 35 21 36 25 33 11 -8z m-1439 -19 c0 -22 -8 -14
-19 20 -10 29 -9 30 4 13 8 -11 15 -26 15 -33z m-156 -15 c27 -50 28 -53 10
-65 -11 -7 -68 -46 -128 -86 -59 -39 -115 -76 -123 -82 -11 -8 -24 0 -55 35
l-40 45 42 35 c39 33 249 170 260 170 3 0 18 -24 34 -52z m1902 -35 c45 -30
99 -69 120 -87 l38 -33 -38 -45 -38 -46 -77 55 c-42 31 -104 71 -138 91 -35
20 -63 42 -63 50 0 14 26 69 42 89 12 15 40 2 154 -74z m-1776 35 c0 -4 -4 -8
-10 -8 -5 0 -10 4 -10 9 0 5 -3 18 -6 28 -5 16 -4 16 10 -1 9 -11 16 -23 16
-28z m1500 13 c-6 -12 -15 -21 -21 -21 -10 0 -5 13 14 38 15 19 20 7 7 -17z
m-1545 -7 c11 -17 12 -25 4 -22 -6 2 -16 14 -20 26 -11 29 -5 28 16 -4z m1582
-4 c-10 -27 -27 -41 -27 -22 0 8 29 52 35 52 2 0 -2 -13 -8 -30z m-1604 -44
c-3 -5 -12 2 -19 15 -20 36 -16 48 5 19 11 -13 17 -29 14 -34z m1636 20 c-7
-14 -16 -26 -21 -26 -12 0 -10 8 8 36 21 31 29 25 13 -10z m-2238 -112 c55
-31 102 -60 105 -65 7 -12 -14 -49 -29 -49 -14 1 -197 170 -184 170 5 0 54
-25 108 -56z m2829 -39 l-84 -85 -23 22 c-13 12 -23 25 -23 29 0 9 190 119
205 119 5 0 -28 -38 -75 -85z m-2911 -65 c28 -49 51 -94 51 -100 0 -5 -23 -38
-51 -72 -131 -162 -253 -383 -324 -587 -42 -124 -84 -320 -91 -434 -8 -128 -4
-122 -79 -136 l-66 -12 -29 31 c-15 16 -33 30 -39 30 -28 0 3 257 54 454 75
288 224 574 430 824 42 50 80 92 84 92 5 0 32 -40 60 -90z m3086 38 c298 -331
494 -789 530 -1240 5 -67 4 -78 -10 -78 -9 0 -29 -14 -44 -30 l-27 -30 -65 12
-64 13 -12 120 c-39 379 -190 750 -414 1018 -27 32 -49 67 -49 78 0 20 91 189
102 189 3 0 27 -24 53 -52z m-2735 -61 c0 -13 -29 12 -42 37 -10 19 -8 18 16
-3 14 -14 26 -29 26 -34z m2310 22 c-12 -16 -25 -28 -28 -25 -5 6 36 56 45 56
3 0 -5 -14 -17 -31z m-2340 -41 c0 -18 -17 -6 -34 25 l-19 32 26 -24 c15 -14
27 -28 27 -33z m2381 34 c-12 -22 -41 -48 -41 -36 0 8 40 54 47 54 2 0 -1 -8
-6 -18z m-2411 -59 c0 -19 -4 -16 -30 19 l-23 31 26 -19 c15 -10 27 -25 27
-31z m2424 12 c-9 -14 -21 -22 -27 -18 -6 4 -1 13 12 25 31 24 35 23 15 -7z
m-2448 -43 c-8 -7 -25 8 -37 31 -11 21 -10 21 15 -2 14 -14 24 -26 22 -29z
m2478 23 c-15 -23 -34 -34 -34 -19 0 5 41 43 48 44 1 0 -5 -11 -14 -25z
m-2519 -25 c27 -30 12 -34 -15 -5 -13 14 -19 25 -13 25 5 0 18 -9 28 -20z
m2540 -10 c-10 -11 -20 -18 -23 -15 -3 3 3 14 13 25 10 11 20 18 23 15 3 -3
-3 -14 -13 -25z m-2550 -30 c12 -19 -12 -10 -31 11 -19 22 -19 22 3 10 12 -6
25 -16 28 -21z m2580 10 c-10 -11 -23 -20 -28 -20 -6 0 -2 9 8 20 10 11 23 20
28 20 6 0 2 -9 -8 -20z m25 -25 c-13 -14 -26 -22 -29 -19 -3 3 5 14 19 24 34
27 38 25 10 -5z m-2664 -36 c15 -26 -6 -15 -37 18 l-34 36 32 -22 c18 -12 35
-27 39 -32z m34 21 c0 -14 -14 -12 -28 2 -19 19 -14 30 8 18 11 -6 20 -15 20
-20z m2656 -21 c-15 -12 -30 -18 -33 -15 -8 8 27 35 46 36 7 0 2 -10 -13 -21z
m-2768 -27 l43 -37 -40 -54 c-36 -48 -94 -136 -138 -209 l-14 -22 -49 25 c-28
14 -50 31 -50 38 0 30 178 297 198 297 4 0 26 -17 50 -38z m2924 -25 c51 -68
148 -222 148 -234 0 -7 -93 -63 -104 -63 -2 0 -19 26 -36 58 -18 31 -60 95
-93 141 l-61 84 43 39 c24 21 46 38 50 38 3 0 27 -29 53 -63z m-2867 22 c14
-22 -3 -18 -26 7 -23 25 -23 26 -2 15 12 -6 25 -16 28 -22z m2735 6 c-12 -13
-27 -22 -32 -19 -6 4 3 15 19 25 38 25 41 24 13 -6z m-2975 -327 c14 -6 25
-15 25 -20 0 -13 -13 -10 -45 12 -33 22 -21 27 20 8z m3199 -13 c-10 -8 -26
-14 -34 -14 -11 0 -10 3 4 14 11 8 27 15 35 15 11 0 10 -4 -5 -15z m-3194 -37
c0 -14 -17 -9 -41 12 l-24 19 33 -12 c17 -6 32 -15 32 -19z m3216 7 c-23 -17
-36 -19 -36 -6 0 5 8 12 18 14 32 9 37 6 18 -8z m-3246 -30 c16 -9 19 -14 9
-15 -8 0 -24 7 -35 15 -24 18 -7 19 26 0z m3260 -4 c-13 -11 -29 -17 -34 -13
-6 3 3 12 19 18 41 18 44 17 15 -5z m-1923 -13 c-2 -7 -12 -57 -22 -110 -10
-54 -22 -98 -26 -98 -13 0 -169 92 -169 100 0 10 40 36 125 82 73 39 100 47
92 26z m641 -17 c31 -16 77 -44 101 -61 l44 -33 -39 -24 c-49 -31 -286 -144
-291 -140 -2 2 28 25 67 51 38 25 70 53 70 61 0 20 -1 20 -80 -20 -38 -19 -73
-35 -77 -35 -5 0 27 23 70 51 42 29 77 58 77 65 0 21 -14 17 -90 -21 -39 -19
-70 -33 -70 -31 0 2 29 23 64 46 73 47 91 64 81 79 -4 7 -33 -3 -78 -25 -40
-20 -69 -33 -66 -30 17 18 136 95 147 95 7 1 38 -12 70 -28z m-1988 -1 c24
-15 7 -19 -20 -5 -15 8 -19 14 -10 14 8 1 22 -3 30 -9z m3282 -6 c-12 -8 -28
-13 -35 -11 -7 3 -1 9 13 15 37 16 47 14 22 -4z m-3301 -24 c5 0 9 -4 9 -10 0
-14 -13 -12 -36 6 -17 14 -17 15 -1 10 10 -3 23 -6 28 -6z m3326 -6 c-16 -8
-34 -13 -40 -11 -7 3 -1 9 13 15 38 16 59 13 27 -4z m-1175 -161 c-83 -87
-164 -171 -180 -187 l-31 -29 -53 35 c-29 19 -62 38 -72 42 -10 3 -16 10 -12
14 11 11 480 280 490 281 4 1 -59 -70 -142 -156z m-2152 116 c0 -5 -13 -3 -30
6 -16 9 -30 17 -30 20 0 2 14 -1 30 -6 17 -6 30 -15 30 -20z m1310 -390 c-15
-21 -33 -52 -40 -69 -7 -16 -15 -30 -19 -30 -3 0 -58 91 -121 202 -208 366
-210 350 13 129 l195 -194 -28 -38z m2020 396 c-14 -7 -27 -11 -30 -9 -6 7 22
24 40 23 9 0 5 -6 -10 -14z m-3351 -31 c13 -12 -8 -10 -29 2 l-25 15 25 -7
c14 -3 27 -8 29 -10z m3368 0 c-16 -9 -31 -13 -34 -10 -3 3 5 10 18 15 37 15
47 12 16 -5z m-3369 -39 c12 -12 -36 -4 -54 10 -17 13 -16 14 15 5 18 -5 36
-12 39 -15z m3402 11 c0 -2 -13 -9 -30 -15 -16 -5 -30 -6 -30 -1 0 5 8 11 18
13 24 7 42 8 42 3z m-3415 -48 c7 -7 1 -8 -15 -3 -40 12 -59 26 -25 19 17 -4
35 -11 40 -16z m3405 2 c-20 -13 -43 -13 -35 0 3 6 16 10 28 10 18 0 19 -2 7
-10z m-3467 -16 c26 -9 47 -21 47 -28 0 -6 -11 -61 -25 -121 -14 -61 -25 -126
-25 -145 0 -54 -8 -60 -73 -53 -53 5 -57 7 -57 32 0 52 50 297 66 323 7 11 14
10 67 -8z m3567 -21 c18 -64 49 -226 52 -273 l3 -45 -55 -7 c-30 -3 -58 -4
-61 -2 -4 2 -10 32 -14 66 -4 35 -18 106 -31 158 -13 52 -24 98 -24 102 0 7
82 36 107 37 7 1 17 -16 23 -36z m-2398 -96 c32 -56 43 -84 35 -88 -19 -10
-208 -42 -213 -36 -7 7 51 120 88 175 17 24 33 41 36 37 4 -3 28 -43 54 -88z
m1296 -44 c20 -39 34 -75 30 -78 -8 -8 -199 24 -211 35 -5 4 13 46 40 94 l48
86 28 -32 c15 -18 44 -65 65 -105z m-548 -9 c330 -156 287 -638 -65 -739 -43
-13 -80 -16 -138 -12 -106 7 -185 46 -260 127 -77 83 -101 147 -102 270 0 86
3 101 31 160 38 80 78 128 144 170 75 48 122 60 230 57 83 -2 103 -6 160 -33z
m310 -144 c-23 -45 -40 -84 -38 -85 2 -2 28 34 58 81 49 75 80 103 80 74 0 -6
-18 -47 -41 -93 -47 -95 -42 -92 30 15 35 53 56 76 66 72 11 -5 6 -22 -25 -85
-22 -43 -38 -79 -36 -79 2 0 25 34 52 75 30 46 56 75 67 75 22 0 23 1 -18 -80
-19 -39 -33 -70 -31 -70 2 0 24 32 47 70 28 44 50 70 61 70 26 0 23 -15 -17
-87 -19 -35 -32 -63 -30 -63 3 0 26 32 51 70 41 63 61 80 76 65 3 -3 -10 -35
-29 -70 -19 -36 -32 -65 -29 -65 3 0 24 29 47 65 38 60 56 75 72 59 3 -4 0
-19 -9 -35 -19 -38 -35 -79 -29 -79 2 0 16 20 30 44 32 55 52 73 66 59 7 -7 4
-24 -11 -53 -29 -57 -19 -61 16 -5 16 25 37 45 47 45 22 0 22 -11 -3 -63 -18
-36 -18 -39 -3 -21 10 12 27 34 39 49 14 20 25 27 37 22 16 -6 16 -9 -3 -47
-26 -51 -18 -51 16 0 16 24 34 40 46 40 12 0 18 -5 15 -12 -3 -7 -13 -31 -22
-53 -18 -43 -14 -41 29 18 25 35 56 50 56 27 0 -6 -9 -29 -20 -50 -26 -51 -18
-51 16 -1 26 40 48 56 65 45 5 -3 2 -19 -7 -35 -21 -41 -11 -49 12 -10 12 20
26 31 41 31 27 0 28 -2 7 -43 l-15 -32 28 33 c15 18 36 32 47 32 18 0 19 -6 1
-55 -4 -11 3 -5 15 13 16 23 29 32 44 30 22 -4 23 -9 10 -43 -6 -14 0 -11 18
9 17 20 30 27 42 23 13 -5 15 -11 6 -26 -17 -33 -11 -37 13 -9 l22 27 205 -40
c112 -21 209 -41 215 -43 5 -2 -340 -5 -767 -5 -461 -1 -779 3 -782 8 -4 5 -9
29 -12 53 -6 40 -1 53 46 137 29 51 54 90 57 88 2 -3 -14 -42 -37 -87z m-985
-2 c64 -97 70 -93 16 10 -53 99 -34 91 25 -10 40 -70 47 -89 45 -131 -1 -28
-4 -54 -7 -58 -3 -5 -355 -9 -787 -8 l-782 1 220 44 220 44 16 -22 17 -22 -5
27 c-4 22 -2 27 15 27 11 0 30 -12 41 -27 11 -16 21 -23 21 -16 0 6 -4 15 -10
18 -5 3 -10 13 -10 21 0 25 38 15 65 -18 l26 -33 -15 31 c-8 17 -12 34 -9 38
9 9 43 8 43 -1 1 -5 12 -21 26 -38 l25 -30 -18 38 c-15 33 -15 39 -3 48 11 7
23 0 48 -28 l33 -38 -16 33 c-30 62 9 72 49 12 33 -51 42 -52 17 -1 -11 21
-17 41 -14 45 15 15 34 3 59 -34 32 -48 45 -46 15 3 -11 19 -18 37 -14 40 15
16 35 4 65 -38 36 -51 49 -54 19 -4 -25 40 -26 55 -6 63 10 3 26 -13 51 -50
44 -66 55 -66 18 1 -21 37 -24 49 -14 55 19 12 34 3 53 -33 37 -67 59 -84 28
-21 -17 34 -27 64 -24 68 15 15 33 2 67 -49 20 -30 38 -55 41 -55 3 0 -6 22
-20 50 -29 57 -31 70 -11 70 8 0 34 -29 57 -65 24 -35 45 -63 47 -60 2 2 -11
31 -29 64 -17 34 -29 64 -26 67 14 14 38 -8 81 -73 54 -80 59 -77 14 10 -18
34 -34 65 -36 70 -2 4 5 7 16 7 13 0 34 -21 62 -65 23 -36 44 -65 46 -65 3 0
-9 27 -26 60 -34 67 -36 80 -15 80 8 0 37 -34 65 -75 28 -41 52 -75 54 -75 2
0 -15 34 -36 76 -23 43 -36 80 -31 85 12 12 23 1 76 -78 26 -40 49 -73 52 -73
3 0 -13 35 -34 79 -37 73 -41 91 -20 91 5 0 33 -37 64 -82z m-1259 -67 c-5 -8
-56 -3 -56 5 0 2 14 4 31 4 16 0 28 -4 25 -9z m3559 -1 c-27 -12 -35 -12 -35
0 0 6 12 10 28 9 24 0 25 -1 7 -9z m-3565 -30 c0 -12 -17 -12 -45 0 -17 7 -15
9 13 9 17 1 32 -3 32 -9z m3585 0 c4 -6 -7 -10 -27 -10 -25 0 -29 3 -18 10 19
13 37 13 45 0z m-3918 -62 c48 -45 18 -121 -47 -121 -41 0 -70 28 -70 70 0 65
69 96 117 51z m4298 -3 c40 -39 31 -89 -18 -110 -54 -23 -107 12 -107 71 0 24
47 64 75 64 14 0 37 -11 50 -25z m-4440 -26 c-4 -5 -25 -9 -48 -8 l-42 1 40
13 c41 13 60 11 50 -6z m4564 -5 c2 -2 -14 -4 -37 -4 -30 0 -42 4 -42 14 0 12
7 12 38 4 20 -5 39 -12 41 -14z m-4240 -84 c5 -8 11 -56 14 -106 13 -187 78
-436 160 -617 54 -117 140 -257 229 -375 l81 -106 -39 -73 c-22 -40 -47 -83
-56 -95 l-17 -23 -36 35 c-90 86 -248 316 -327 475 -114 226 -200 531 -215
760 l-6 94 26 12 c15 7 33 22 41 34 14 21 17 21 76 11 35 -7 65 -18 69 -26z
m3985 15 c10 -14 28 -31 42 -37 25 -12 25 -14 19 -87 -33 -374 -172 -756 -382
-1048 -76 -107 -194 -244 -204 -238 -6 4 -88 146 -107 186 -1 3 21 34 49 70
238 295 381 643 420 1019 7 63 16 120 21 125 5 6 32 15 61 21 29 6 55 12 58
13 4 0 14 -10 23 -24z m-556 -85 c24 1 34 18 23 41 l-12 24 17 -22 c19 -27 42
-28 133 -9 l64 14 -6 -91 c-20 -278 -155 -627 -336 -862 -252 -327 -588 -549
-980 -644 -120 -30 -308 -57 -318 -47 -5 5 11 105 23 148 3 9 -5 26 -18 38
-22 21 -22 22 -2 12 43 -22 48 26 7 58 -20 15 -22 18 -6 11 53 -26 60 9 11 52
l-33 28 34 -16 c28 -14 35 -15 42 -3 14 21 11 28 -26 49 -43 26 -46 35 -4 13
26 -13 33 -14 40 -2 13 20 11 25 -23 53 l-33 26 31 -15 c17 -8 34 -12 38 -9
15 16 3 43 -29 63 -43 26 -46 36 -5 15 38 -20 50 -19 50 4 0 10 -17 30 -40 45
-51 34 -51 42 0 16 38 -19 41 -19 47 -3 5 12 -2 23 -22 37 -62 46 -71 58 -23
33 26 -14 49 -22 52 -19 17 16 -1 41 -54 76 -33 21 -60 40 -60 42 0 2 27 -9
60 -26 70 -35 70 -35 70 -11 0 12 -19 31 -50 51 -63 40 -59 52 5 15 32 -20 49
-25 57 -17 11 11 -9 35 -67 80 -29 22 -28 21 21 -2 28 -14 54 -22 58 -19 16
16 1 34 -59 73 -36 23 -65 44 -65 47 0 2 29 -11 65 -30 35 -19 67 -32 70 -29
15 15 -2 36 -62 77 -77 51 -74 59 6 15 30 -17 59 -30 65 -30 18 0 155 68 203
100 24 17 53 30 64 30 12 0 64 -25 117 -55 90 -52 122 -64 122 -48 0 3 -27 54
-60 113 -33 59 -60 112 -60 118 0 7 15 34 34 60 40 55 96 169 96 195 0 10 -14
45 -31 78 -38 75 -22 69 27 -11 20 -33 38 -60 40 -60 1 0 9 3 18 6 13 5 11 15
-14 65 -17 32 -28 59 -25 59 3 0 21 -25 40 -55 24 -36 42 -55 55 -55 25 0 25
1 -5 60 -14 28 -23 50 -21 50 2 0 18 -22 36 -50 20 -31 39 -50 51 -50 24 0 24
11 -1 63 -16 33 -17 37 -3 17 41 -57 60 -73 77 -67 14 6 13 13 -15 62 -17 30
-29 55 -26 55 2 0 21 -25 41 -55 34 -52 57 -67 71 -46 3 5 -4 26 -16 46 -12
20 -19 38 -16 41 3 3 17 -15 32 -40 43 -73 82 -58 44 16 -23 46 -18 43 24 -14
20 -26 32 -35 47 -31 18 5 18 7 5 34 -22 41 -18 49 6 12 19 -30 47 -42 62 -27
3 4 -1 21 -9 38 l-15 31 26 -32 c15 -18 35 -33 46 -33 22 0 24 12 8 43 -10 18
-7 17 14 -5 14 -16 33 -28 43 -28 13 0 15 6 9 28 l-6 27 21 -23 c12 -13 29
-21 37 -18 8 3 17 6 19 6 3 0 -3 15 -11 33 l-16 32 26 -32 c15 -18 29 -33 33
-33z m-3099 20 c14 0 32 7 42 16 16 15 17 14 12 -4 -8 -32 24 -35 53 -4 23 24
25 24 15 4 -13 -24 -7 -42 12 -42 7 0 25 14 41 32 25 30 27 30 12 5 -9 -15
-14 -32 -11 -37 7 -12 45 -14 45 -2 0 4 10 18 21 32 l20 25 -15 -31 c-8 -17
-12 -34 -9 -38 16 -15 43 -3 63 29 26 43 36 46 15 5 -8 -16 -15 -34 -15 -40 0
-21 36 -9 63 22 l28 33 -16 -34 c-13 -26 -14 -35 -4 -41 13 -8 39 -3 39 9 0 3
12 20 25 36 l26 30 -21 -42 c-11 -24 -18 -43 -16 -43 2 0 11 -3 20 -6 10 -4
24 8 42 35 31 47 43 48 20 2 -35 -67 0 -71 46 -6 36 51 49 54 19 4 -26 -42
-26 -59 -2 -59 12 0 31 19 51 50 18 28 34 50 36 50 2 0 -7 -22 -21 -50 -30
-59 -30 -60 -5 -60 13 0 32 19 56 55 20 30 39 55 41 55 2 0 -8 -23 -23 -51
-43 -86 -12 -105 39 -24 40 63 53 67 22 6 -24 -49 -26 -71 -5 -71 5 0 30 30
55 67 53 80 57 77 13 -11 l-31 -64 37 -77 c20 -43 52 -99 71 -125 19 -26 35
-50 35 -52 0 -3 -27 -52 -60 -109 -59 -101 -70 -129 -51 -129 5 0 57 27 115
60 58 33 109 60 112 60 4 0 28 -16 54 -35 27 -20 82 -51 124 -70 41 -19 77
-39 80 -44 7 -11 176 -894 176 -920 0 -25 9 -25 -137 -6 -397 52 -776 251
-1051 551 -250 273 -417 647 -447 1001 l-7 81 63 -14 c35 -7 75 -13 88 -14z
m-179 10 c0 -5 -17 -10 -37 -9 -34 1 -35 2 -13 9 36 11 50 11 50 0z m3578 -7
c-10 -2 -26 -2 -35 0 -10 3 -2 5 17 5 19 0 27 -2 18 -5z m-3573 -33 c-3 -5
-18 -10 -33 -10 -21 0 -24 2 -12 10 20 13 53 13 45 0z m1141 -64 c-40 -71 -43
-86 -21 -86 8 0 36 32 61 70 26 39 49 69 50 67 2 -2 -12 -32 -31 -68 -40 -74
-41 -79 -17 -79 10 0 33 25 56 60 51 80 64 86 28 13 -16 -32 -32 -70 -36 -85
-3 -16 -27 -62 -52 -104 -45 -74 -47 -75 -65 -57 -22 22 -109 173 -109 189 0
13 64 110 88 134 8 8 -1 -15 -20 -52 -20 -37 -33 -70 -30 -73 15 -15 34 2 78
69 27 41 50 73 53 71 2 -2 -13 -33 -33 -69z m1258 4 c44 -67 69 -90 83 -77 3
4 -11 38 -31 77 -20 38 -35 70 -33 70 9 0 97 -139 97 -154 0 -30 -102 -206
-119 -206 -9 0 -87 130 -96 160 -6 22 -59 141 -72 163 -2 4 -2 7 0 7 3 0 24
-29 47 -64 51 -79 67 -95 76 -72 3 9 -9 44 -30 81 -51 92 -45 93 15 3 34 -51
58 -78 70 -78 11 0 19 3 19 6 0 4 -18 40 -41 80 -22 41 -38 74 -36 74 2 0 25
-32 51 -70z m1185 54 c2 -2 -10 -4 -27 -4 -18 0 -32 5 -32 10 0 9 47 4 59 -6z
m-2194 -44 c10 -22 24 -45 32 -52 41 -34 38 -38 -159 -234 -105 -104 -188
-180 -184 -169 12 34 278 495 286 495 4 0 15 -18 25 -40z m-1380 -17 c3 -21
16 -85 27 -143 31 -155 32 -152 -27 -172 -27 -9 -53 -13 -58 -9 -10 10 -53
203 -62 280 -9 74 -3 81 67 81 47 0 47 0 53 -37z m3604 31 c31 -7 32 -8 26
-48 -15 -97 -48 -253 -60 -283 l-14 -32 -53 18 c-32 11 -52 24 -52 32 1 8 14
71 28 140 14 70 26 138 26 153 0 23 4 26 34 26 18 0 48 -3 65 -6z m-1369 -319
l195 -196 -195 111 c-107 61 -225 127 -262 148 -66 36 -82 52 -55 52 10 0 121
72 122 79 0 1 88 -87 195 -194z m-519 79 c12 -3 18 -20 22 -57 3 -29 2 -374
-1 -767 l-6 -715 -40 204 -39 204 23 19 24 19 -27 -6 c-23 -6 -27 -4 -27 13 0
11 12 30 28 42 24 19 18 21 -22 4 -7 -3 -16 3 -20 12 -5 12 2 25 21 41 23 20
24 22 5 13 -24 -12 -42 -6 -42 13 0 7 14 25 32 40 l33 28 -32 -15 c-30 -15
-32 -15 -39 6 -5 16 -1 26 12 35 11 7 28 19 39 28 18 15 17 15 -12 0 -42 -20
-53 -19 -53 4 0 11 15 29 36 41 42 27 39 38 -5 16 -38 -20 -41 -20 -41 3 0 11
18 33 42 50 48 36 44 40 -12 11 l-40 -20 0 25 c0 17 9 29 28 39 16 8 35 22 43
32 11 14 6 13 -29 -5 -41 -21 -62 -21 -62 -1 0 6 25 26 55 46 30 20 55 39 55
41 0 2 -23 -8 -51 -23 -36 -18 -55 -22 -62 -15 -14 14 3 32 64 71 27 18 49 34
49 36 0 2 -27 -9 -60 -26 -70 -35 -70 -35 -70 -11 0 11 21 32 55 55 30 20 55
38 55 41 0 3 -22 -6 -50 -20 -57 -29 -70 -31 -70 -10 0 8 27 33 60 55 33 22
60 43 60 46 0 2 -27 -9 -60 -26 -70 -35 -70 -35 -70 -12 0 10 23 31 55 52 72
46 71 60 -1 21 -54 -29 -74 -32 -74 -10 0 5 32 30 70 55 39 26 70 48 70 50 0
7 -52 -16 -95 -42 -29 -16 -46 -21 -50 -14 -10 16 8 33 81 80 35 23 64 44 64
46 0 2 -31 -12 -70 -31 -76 -38 -90 -42 -90 -21 0 7 32 34 70 60 39 25 70 48
70 51 0 3 -31 -11 -70 -30 -79 -40 -80 -40 -80 -20 0 8 37 39 82 70 46 30 79
55 75 55 -4 0 -44 -18 -88 -41 -45 -22 -79 -35 -77 -29 1 5 41 33 88 60 86 50
104 54 171 34z m254 -66 c43 -22 88 -42 100 -44 22 -2 128 -57 170 -87 18 -14
16 -17 -41 -53 -33 -22 -83 -50 -112 -63 l-52 -24 -55 38 c-66 45 -67 56 -2
19 43 -24 67 -25 67 -4 0 5 -27 28 -60 50 -33 22 -60 43 -60 46 0 2 27 -9 59
-26 38 -19 62 -26 66 -19 10 15 -8 32 -81 79 -35 23 -64 44 -64 46 0 2 31 -12
70 -31 76 -38 90 -42 90 -21 0 7 -42 41 -92 75 -51 33 -90 61 -86 61 3 0 41
-19 83 -42z m-1915 -58 c-8 -6 -24 -10 -35 -9 -15 0 -13 3 10 13 32 14 49 11
25 -4z m1398 -92 c12 -62 19 -114 17 -116 -2 -2 -37 12 -78 32 -77 38 -149 94
-132 102 6 2 44 24 85 49 41 24 78 44 81 45 3 0 16 -50 27 -112z m2027 92 c18
-8 17 -9 -7 -9 -15 -1 -30 4 -33 9 -7 12 12 12 40 0z m-3400 -29 c-6 -4 -23
-11 -40 -15 l-30 -6 25 15 c27 16 60 21 45 6z m3385 -6 c27 -15 20 -19 -17 -9
-13 4 -23 10 -23 15 0 12 11 11 40 -6z m-3386 -36 c-33 -13 -50 -9 -24 5 14 8
29 12 34 8 5 -3 1 -9 -10 -13z m3386 -4 l25 -15 -30 6 c-33 7 -58 24 -34 24 7
-1 25 -7 39 -15z m-3365 -24 c-6 -5 -21 -12 -35 -15 -24 -7 -24 -6 -6 8 21 17
57 23 41 7z m3335 -7 c14 -8 17 -13 7 -10 -10 3 -25 6 -33 6 -8 0 -14 5 -14
10 0 14 10 12 40 -6z m-3330 -34 c-8 -6 -22 -10 -30 -9 -9 0 -5 6 10 14 27 14
44 10 20 -5z m3340 -15 c0 -2 -13 1 -30 6 -16 6 -30 15 -30 20 0 5 14 3 30 -6
17 -9 30 -17 30 -20z m-3310 -9 c0 -2 -15 -9 -32 -15 -30 -10 -31 -9 -14 4 18
14 46 20 46 11z m3276 -12 c17 -14 17 -15 1 -10 -10 3 -23 6 -28 6 -5 0 -9 5
-9 10 0 14 13 12 36 -6z m-3266 -24 c0 -5 -4 -10 -9 -10 -5 0 -18 -3 -28 -6
-16 -5 -16 -4 1 10 23 18 36 20 36 6z m3244 -5 c11 -8 15 -15 9 -15 -19 0 -43
12 -43 21 0 13 12 11 34 -6z m-3224 -24 c0 -5 -15 -14 -32 -20 l-33 -11 25 20
c27 21 40 25 40 11z m3210 -11 l25 -20 -32 11 c-18 6 -33 15 -33 20 0 14 13
10 40 -11z m-3211 -36 c-36 -20 -48 -16 -19 5 13 11 29 17 34 14 5 -3 -2 -12
-15 -19z m3197 1 c10 -8 14 -15 8 -15 -5 0 -19 7 -30 15 -10 8 -14 15 -8 15 5
0 19 -7 30 -15z m-3115 -93 c26 -43 68 -105 94 -139 l46 -63 -28 -24 c-32 -28
-71 -51 -76 -45 -94 120 -187 263 -187 285 0 13 77 64 95 64 6 -1 31 -35 56
-78z m3119 53 c28 -14 50 -29 50 -33 0 -28 -184 -292 -203 -292 -7 0 -30 16
-52 34 -30 26 -38 38 -30 49 6 8 48 71 95 141 46 69 86 126 88 126 1 0 25 -11
52 -25z m-2960 -281 c0 -9 -32 -33 -44 -34 -5 0 -1 9 9 20 18 20 35 26 35 14z
m2725 -14 c10 -11 14 -20 9 -20 -12 1 -44 25 -44 34 0 12 17 6 35 -14z m-2710
-26 c-11 -9 -29 -20 -40 -26 -17 -9 -16 -6 4 16 14 14 32 26 40 26 13 -1 12
-4 -4 -16z m2696 -11 l24 -26 -32 19 c-18 10 -33 22 -33 26 0 15 17 8 41 -19z
m-2661 -7 c0 -2 -12 -12 -27 -21 l-28 -18 19 21 c17 20 36 29 36 18z m2634
-23 l20 -27 -27 20 c-26 18 -35 34 -19 34 4 0 16 -13 26 -27z m-2614 -2 c0 -5
-15 -20 -32 -32 l-33 -22 29 31 c32 34 36 37 36 23z m2581 -18 l24 -27 -24 15
c-14 9 -27 21 -29 27 -6 19 3 14 29 -15z m-2571 -28 c-13 -14 -26 -23 -28 -20
-7 7 29 45 41 45 6 0 0 -11 -13 -25z m2545 5 c10 -11 14 -20 8 -20 -5 0 -18 9
-28 20 -10 11 -14 20 -8 20 5 0 18 -9 28 -20z m-2496 -7 c0 -5 -14 -19 -32
-33 l-32 -25 23 33 c22 29 43 42 41 25z m2472 -25 l23 -33 -27 24 c-15 14 -27
28 -27 33 0 15 8 8 31 -24z m-2633 -11 l22 -23 -92 -89 c-85 -84 -89 -87 -66
-45 73 130 103 180 108 180 4 0 16 -10 28 -23z m2837 -59 c26 -46 57 -99 68
-118 14 -25 -7 -9 -74 57 l-93 92 24 26 c13 14 25 25 26 25 1 0 23 -37 49 -82z
m-2657 60 c-2 -6 -15 -18 -28 -27 l-24 -16 19 27 c20 28 40 38 33 16z m2427
-14 l16 -25 -25 16 c-14 10 -26 21 -26 26 0 17 18 9 35 -17z m-2401 -3 c3 -4
-6 -19 -21 -32 l-26 -24 19 33 c20 35 21 36 28 23z m2363 -8 c32 -42 35 -57 4
-29 -29 28 -39 46 -25 46 4 0 13 -8 21 -17z m-2327 -16 c0 -2 -12 -14 -27 -28
-24 -22 -24 -13 0 19 8 11 27 17 27 9z m2300 -12 c20 -24 6 -28 -15 -5 -10 11
-13 20 -8 20 6 0 16 -7 23 -15z m-2197 -64 c45 -33 107 -74 137 -91 30 -18 56
-33 58 -35 8 -7 -50 -105 -61 -105 -15 0 -202 121 -259 167 l-37 30 36 47 c19
25 38 46 40 46 3 0 41 -27 86 -59z m2191 15 c20 -23 36 -46 36 -49 0 -15 -271
-197 -295 -197 -11 0 -55 77 -55 96 0 6 38 34 83 62 46 28 106 69 133 91 27
22 52 40 56 40 4 1 23 -19 42 -43z m-2229 -168 c130 -88 333 -190 460 -232
170 -55 387 -96 507 -96 41 0 48 -3 53 -22 26 -116 26 -112 -1 -132 -14 -10
-30 -29 -35 -42 -11 -30 -38 -31 -214 -5 -361 53 -702 195 -982 409 -110 83
-186 154 -176 162 4 5 48 31 97 59 l90 51 40 -35 c23 -19 95 -72 161 -117z
m2449 91 c47 -27 86 -54 86 -59 0 -5 -42 -43 -92 -85 -348 -287 -751 -452
-1200 -490 -66 -6 -78 -4 -78 8 0 8 -14 27 -31 41 l-30 26 13 67 13 68 125 12
c69 7 169 22 223 33 272 58 590 210 792 378 33 28 67 51 77 51 9 1 55 -22 102
-50z m-2194 -109 c-6 -12 -14 -19 -17 -17 -2 3 1 15 7 27 6 12 14 19 17 17 2
-3 -1 -15 -7 -27z m1649 -2 l11 -33 -20 24 c-21 25 -26 41 -11 41 5 0 14 -15
20 -32z m-1615 -14 c-22 -32 -25 -30 -13 6 6 16 15 27 20 24 5 -3 2 -16 -7
-30z m1583 -4 c14 -36 1 -40 -15 -5 -14 31 -15 35 -4 35 4 0 13 -13 19 -30z
m-1537 11 c0 -5 -9 -19 -20 -32 l-19 -24 12 33 c10 30 27 44 27 23z m1499 -23
l11 -33 -19 25 c-11 13 -17 28 -15 32 8 13 12 10 23 -24z m-1469 4 c0 -5 -7
-17 -16 -28 -14 -17 -15 -17 -10 -1 3 10 6 23 6 28 0 5 5 9 10 9 6 0 10 -4 10
-8z m1439 -24 l11 -33 -20 24 c-21 25 -26 41 -11 41 5 0 14 -15 20 -32z
m-1419 -18 c-16 -40 -23 -33 -9 9 6 18 14 30 17 27 2 -3 -1 -19 -8 -36z m1384
0 c7 -24 6 -24 -8 -6 -9 11 -16 27 -16 35 0 21 16 2 24 -29z m-1346 -5 c-6
-14 -13 -24 -14 -22 -6 6 9 47 17 47 5 0 3 -11 -3 -25z m1307 4 c10 -30 0 -33
-13 -4 -6 14 -7 25 -2 25 5 0 12 -9 15 -21z m-1265 -2 c0 -7 -7 -22 -15 -33
-16 -20 -16 -18 0 31 5 18 15 20 15 2z m1230 -1 c0 -8 3 -23 6 -33 3 -10 -2
-7 -10 7 -18 30 -20 40 -6 40 6 0 10 -6 10 -14z m-1202 -31 c-14 -31 -21 -26
-12 9 3 14 10 23 15 21 4 -3 3 -17 -3 -30z m1166 9 c10 -38 0 -41 -12 -5 -6
17 -7 31 -3 31 5 0 12 -12 15 -26z m-1133 -31 c-9 -16 -10 -15 -11 8 0 14 3
29 8 33 12 12 14 -22 3 -41z m1103 2 l6 -30 -15 25 c-8 14 -14 32 -15 40 0 23
17 -2 24 -35z m-1007 20 c28 -8 100 -23 160 -34 l108 -18 -1 -57 c-1 -31 -4
-59 -7 -62 -13 -13 -335 50 -353 69 -4 3 7 38 31 105 5 15 1 15 62 -3z m978
-41 c13 -47 14 -58 3 -65 -36 -23 -325 -76 -338 -63 -4 5 -10 33 -12 63 l-3
55 85 12 c47 7 119 21 160 32 41 11 78 21 82 21 4 1 14 -24 23 -55z m-672 -46
c-8 -46 -13 -48 -13 -5 0 21 4 37 10 37 5 0 7 -14 3 -32z m34 -15 c-3 -10 -5
-2 -5 17 0 19 2 27 5 18 2 -10 2 -26 0 -35z m225 -5 c-9 -9 -12 -4 -11 23 0
32 1 33 11 11 8 -17 8 -26 0 -34z m38 20 c0 -36 -4 -35 -14 5 -4 16 -2 27 4
27 5 0 10 -14 10 -32z m-97 -310 c24 -28 21 -65 -8 -93 -39 -40 -89 -31 -110
18 -33 80 62 141 118 75z m-74 -175 c-1 -34 -2 -35 -9 -13 -11 36 -11 50 0 50
6 0 10 -17 9 -37z"/>
<path d="M3047 5102 c-10 -10 -17 -25 -17 -34 0 -22 33 -48 61 -48 32 0 49 17
49 50 0 14 -5 31 -12 38 -18 18 -63 14 -81 -6z"/>
<path d="M2975 3166 c-121 -56 -180 -187 -142 -317 20 -68 61 -117 127 -153
109 -59 237 -40 320 50 54 59 72 105 72 181 1 194 -201 321 -377 239z"/>
<path d="M902 2968 c-20 -20 -14 -66 11 -82 50 -33 105 21 72 70 -17 26 -62
33 -83 12z"/>
<path d="M5196 2964 c-40 -40 4 -105 57 -85 33 13 43 45 23 76 -19 29 -57 33
-80 9z"/>
<path d="M3050 820 c-11 -11 -20 -27 -20 -35 0 -21 36 -55 58 -55 24 0 52 31
52 57 0 23 -30 53 -53 53 -9 0 -26 -9 -37 -20z"/>
<path d="M32 3135 c-20 -19 -32 -35 -26 -35 6 0 19 9 29 20 28 31 88 27 114
-6 33 -42 43 -98 42 -236 0 -105 3 -128 14 -128 9 0 42 54 81 133 64 126 68
131 75 102 5 -16 12 -76 15 -133 5 -67 11 -101 18 -99 6 2 50 77 98 167 47 91
91 166 97 168 29 10 5 22 -41 22 -50 -1 -52 -2 -33 -16 11 -8 19 -23 17 -32
-5 -29 -95 -212 -104 -212 -4 0 -8 14 -8 31 0 77 -24 219 -37 219 -7 0 -39
-53 -72 -117 l-58 -117 -7 79 c-14 156 -56 225 -137 225 -31 0 -47 -7 -77 -35z"/>
<path d="M5779 3120 c-57 -10 -95 -34 -115 -71 -16 -32 -18 -59 -5 -59 16 0
41 30 41 49 0 10 8 25 18 34 23 21 70 38 77 28 5 -9 -37 -229 -50 -263 -4 -9
-22 -22 -40 -28 -18 -6 -38 -17 -45 -25 -9 -11 8 -14 94 -20 118 -8 147 -4
177 26 26 26 20 33 -15 19 -15 -5 -59 -10 -97 -10 l-71 0 30 38 c17 21 34 53
39 72 9 33 12 35 53 35 25 0 45 5 47 13 3 8 -9 12 -42 12 -44 0 -47 2 -42 23
3 12 9 39 12 60 4 22 15 42 27 48 27 14 78 1 87 -23 6 -16 9 -17 18 -6 6 7 14
23 17 36 7 22 6 22 -81 21 -48 -1 -109 -5 -134 -9z"/>
<path d="M3103 369 c-44 -13 -83 -62 -83 -105 0 -29 9 -43 60 -91 55 -51 61
-60 58 -92 -2 -28 -9 -39 -32 -50 -26 -12 -36 -12 -84 4 -46 16 -55 17 -62 4
-13 -19 1 -30 48 -36 64 -9 109 4 147 43 55 54 49 83 -30 159 -70 66 -81 97
-47 128 29 27 88 22 108 -8 22 -33 34 -32 34 5 0 25 -5 30 -37 39 -21 6 -40
11 -43 10 -3 0 -19 -5 -37 -10z"/>
</g>
</svg>
